<?xml version="1.0"?>
<!DOCTYPE svg PUBLIC "-//W3C//DTD SVG 1.1//EN" "http://www.w3.org/Graphics/SVG/1.1/DTD/svg11.dtd">
<svg xmlns="http://www.w3.org/2000/svg" xmlns:xl="http://www.w3.org/1999/xlink" version="1.1" viewBox="23 36 709 477" width="709pt" height="477pt"><metadata xmlns:dc="http://purl.org/dc/elements/1.1/"><dc:date>2012-11-21 09:05Z</dc:date><!-- Produced by OmniGraffle Professional 5.4.2 --></metadata><defs></defs><g stroke="none" stroke-opacity="1" stroke-dasharray="none" fill="none" fill-opacity="1"><title>Canvas 22</title><g><title>Layer 1</title><path d="M 308.51284 405.59574 C 308.79375 407.23486 308.93685 408.90952 308.93685 410.61403 C 308.93685 434.56756 288.97487 430.57618 288.97487 462.51773 C 288.97487 494.4584 328.403 504.4397 348.36516 504.4397 C 369.32873 504.4397 409.2527 496.95285 409.2527 466.5091 C 409.2527 435.5642 387.7934 435.5642 387.7934 408.61593 C 387.7934 408.52026 387.79373 408.4246 387.79408 408.32892 C 408.28587 402.51323 427.62185 391.53968 443.7533 375.40785 C 458.74436 360.41747 469.28092 342.65924 475.363 323.778 C 472.0609 323.10672 468.45857 322.73646 464.5505 322.73646 C 437.60242 322.73641 437.60242 344.19611 406.65794 344.19611 C 376.214 344.19611 368.72685 304.27194 368.72685 283.30829 C 368.72685 263.34617 378.7081 223.91808 410.6492 223.91808 C 442.5903 223.91808 438.59903 243.88019 462.55212 243.88019 C 466.69882 243.88019 470.66578 243.03373 474.3835 241.41497 C 468.1785 223.62492 457.96856 206.92126 443.7533 192.7059 C 427.84233 176.79481 408.81345 165.90158 388.63355 160.0262 C 389.09026 136.15781 408.94013 140.45595 409.4968 108.5517 C 410.05418 76.615418 370.80637 65.947755 350.84729 65.599304 C 329.88687 65.23374 289.8382 72.02281 289.30703 102.461724 C 288.76695 133.40181 310.22311 133.77615 309.75277 160.72047 C 309.7447 161.18214 309.73151 161.63943 309.71344 162.09233 C 291.94096 168.2986 275.25405 178.50283 261.0513 192.7059 C 246.21568 207.54136 235.7428 225.08675 229.6323 243.74888 L 229.6323 243.74915 C 228.70621 243.836 227.77087 243.88019 226.82526 243.88019 C 202.87218 243.88019 206.86345 223.91808 174.92201 223.91808 C 142.98125 223.91808 133 263.34621 133 283.30829 C 133 304.27194 140.48714 344.19611 170.93074 344.19611 C 201.87556 344.19611 201.87556 322.73641 228.82398 322.73641 C 228.91984 322.73641 229.0157 322.73672 229.11122 322.7372 C 235.13852 342.00623 245.78533 360.1423 261.0513 375.40785 C 274.9337 389.29055 291.18961 399.35304 308.51284 405.59574 Z" fill="white"/><path d="M 308.51284 405.59574 C 308.79375 407.23486 308.93685 408.90952 308.93685 410.61403 C 308.93685 434.56756 288.97487 430.57618 288.97487 462.51773 C 288.97487 494.4584 328.403 504.4397 348.36516 504.4397 C 369.32873 504.4397 409.2527 496.95285 409.2527 466.5091 C 409.2527 435.5642 387.7934 435.5642 387.7934 408.61593 C 387.7934 408.52026 387.79373 408.4246 387.79408 408.32892 C 408.28587 402.51323 427.62185 391.53968 443.7533 375.40785 C 458.74436 360.41747 469.28092 342.65924 475.363 323.778 C 472.0609 323.10672 468.45857 322.73646 464.5505 322.73646 C 437.60242 322.73641 437.60242 344.19611 406.65794 344.19611 C 376.214 344.19611 368.72685 304.27194 368.72685 283.30829 C 368.72685 263.34617 378.7081 223.91808 410.6492 223.91808 C 442.5903 223.91808 438.59903 243.88019 462.55212 243.88019 C 466.69882 243.88019 470.66578 243.03373 474.3835 241.41497 C 468.1785 223.62492 457.96856 206.92126 443.7533 192.7059 C 427.84233 176.79481 408.81345 165.90158 388.63355 160.0262 C 389.09026 136.15781 408.94013 140.45595 409.4968 108.5517 C 410.05418 76.615418 370.80637 65.947755 350.84729 65.599304 C 329.88687 65.23374 289.8382 72.02281 289.30703 102.461724 C 288.76695 133.40181 310.22311 133.77615 309.75277 160.72047 C 309.7447 161.18214 309.73151 161.63943 309.71344 162.09233 C 291.94096 168.2986 275.25405 178.50283 261.0513 192.7059 C 246.21568 207.54136 235.7428 225.08675 229.6323 243.74888 L 229.6323 243.74915 C 228.70621 243.836 227.77087 243.88019 226.82526 243.88019 C 202.87218 243.88019 206.86345 223.91808 174.92201 223.91808 C 142.98125 223.91808 133 263.34621 133 283.30829 C 133 304.27194 140.48714 344.19611 170.93074 344.19611 C 201.87556 344.19611 201.87556 322.73641 228.82398 322.73641 C 228.91984 322.73641 229.0157 322.73672 229.11122 322.7372 C 235.13852 342.00623 245.78533 360.1423 261.0513 375.40785 C 274.9337 389.29055 291.18961 399.35304 308.51284 405.59574 Z" stroke="#505050" stroke-linecap="round" stroke-linejoin="round" stroke-width="13"/><circle cx="552.30465" cy="219.7016" r="18.048655" fill="white"/><circle cx="552.30465" cy="219.7016" r="18.048655" stroke="#505050" stroke-linecap="round" stroke-linejoin="round" stroke-width="13"/><circle cx="611.2588" cy="158.7968" r="28.497845" fill="white"/><circle cx="611.2588" cy="158.7968" r="28.497845" stroke="#505050" stroke-linecap="round" stroke-linejoin="round" stroke-width="13"/><circle cx="683.6369" cy="84.337" r="39.896965" fill="white"/><circle cx="683.6369" cy="84.337" r="39.896965" stroke="#505050" stroke-linecap="round" stroke-linejoin="round" stroke-width="13"/><circle cx="405.3411" cy="197.0991" r="9.7011156" fill="#505050"/><path d="M 96.2838 328.16 C 91.562805 313.2495 82.33833 298.25585 82.1194 283.424 C 81.90047 268.59215 90.68696 253.91319 94.9701 239.16" stroke="#505050" stroke-linecap="round" stroke-linejoin="round" stroke-width="10"/><path d="M 49.1644 328.16 C 44.443405 313.2495 35.218928 298.25585 35 283.424 C 34.781072 268.59215 43.567562 253.91319 47.8507 239.16" stroke="#505050" stroke-linecap="round" stroke-linejoin="round" stroke-width="10"/></g></g></svg>
